<?xml version="1.0" standalone="no"?><!DOCTYPE svg PUBLIC "-//W3C//DTD SVG 1.1//EN" "http://www.w3.org/Graphics/SVG/1.1/DTD/svg11.dtd"><svg t="1594731734933" class="icon" viewBox="0 0 1024 1024" version="1.1" xmlns="http://www.w3.org/2000/svg" p-id="3450" width="48" height="48" xmlns:xlink="http://www.w3.org/1999/xlink"><defs><style type="text/css"></style></defs><path d="M838.4 121.6l-51.2 160-172.8 140.8-38.4 32 32 38.4L704 614.4l38.4 44.8 38.4-38.4 51.2-51.2 19.2 19.2-57.6 51.2-38.4 38.4 38.4 38.4 89.6 89.6 6.4 6.4-19.2 19.2-6.4-6.4-89.6-89.6-38.4-38.4-32 32-51.2 51.2-19.2-19.2 51.2-51.2 38.4-38.4-44.8-32-134.4-108.8-32-25.6-32 25.6L345.6 640l-44.8 38.4 38.4 38.4 51.2 51.2-19.2 19.2-51.2-57.6-38.4-38.4-38.4 38.4-89.6 89.6-6.4 6.4-19.2-19.2 6.4-6.4 89.6-89.6 38.4-38.4-32-32-51.2-57.6 19.2-19.2 51.2 51.2 38.4 38.4 32-38.4 96-115.2 32-44.8-38.4-32-172.8-140.8-51.2-160 160 51.2 128 153.6 38.4 51.2 38.4-51.2 128-153.6 160-51.2M921.6 38.4L652.8 128 512 294.4 377.6 134.4 102.4 38.4 192 307.2l179.2 147.2-89.6 128-83.2-89.6-96 89.6L192 672l-89.6 89.6-44.8-44.8-44.8 44.8L192 940.8l44.8-44.8-44.8-44.8 89.6-89.6 89.6 89.6 89.6-89.6-83.2-83.2L512 569.6l134.4 108.8-83.2 83.2 89.6 89.6 89.6-89.6 89.6 89.6-44.8 44.8 44.8 44.8 179.2-179.2-44.8-44.8-44.8 44.8-89.6-89.6 89.6-89.6L832 492.8 748.8 576l-96-115.2L832 313.6 921.6 38.4z" p-id="3451" fill="#5489d8"></path></svg>